PathFileType	4	(X/Y/Z)	C:/Users/beibeiliu/ov580/test_trc\sequence.15_training_dense_left.trc
DataRate	CameraRate	NumFrames	NumMarkers	Units	OrigDataRate	OrigDataStartFrame	OrigNumFrames
120	120	22	19	mm	120	1	153
Frame#	Time	ThumbCMC			ThumbMCP			ThumbIP			ThumbTip			IndexMCP			IndexPIP			IndexTip			MiddleMCP			MiddlePIP			MiddleTip			RingMCP			RingPIP			RingTip			PinkyMCP			PinkyPIP			PinkyTip			BackHand1			BackHand2			BackHand3	
		X0	Y0	Z0	X1	Y1	Z1	X2	Y2	Z2	X3	Y3	Z3	X4	Y4	Z4	X5	Y5	Z5	X6	Y6	Z6	X7	Y7	Z7	X8	Y8	Z8	X9	Y9	Z9	X10	Y10	Z10	X11	Y11	Z11	X12	Y12	Z12	X13	Y13	Z13	X14	Y14	Z14	X15	Y15	Z15	X16	Y16	Z16	X17	Y17	Z17	X18	Y18	Z18	
0	0	-136.301	-12.2627	125.793	-130.101	-46.2658	109.683	-132.096	-67.1156	87.1534	-159.339	-75.6034	69.5294	-147.133	-7.79054	52.7661	-137.396	-17.8527	31.2282	-131.405	-30.6865	4.63059	-170.374	-11.5567	46.409	-170.239	-19.2967	20.6054	-170.334	-28.9419	-6.07999	-184.547	-27.1441	49.6218	-183.694	-39.9836	30.329	-178.857	-58.6232	10.4249	-197.963	-46.5309	65.5494	-183.705	-69.3193	64.4863	-162.29	-72.7718	89.177	-195.737	-3.17816	95.4283	-198.817	5.61466	129.516	-168.72	13.3026	110.118	
1	0.00833333	-119.724	-15.5879	135.594	-109.687	-50.0133	124.754	-113.611	-70.0566	106.221	-133.194	-83.6847	87.706	-121.045	-18.1481	62.4011	-109.536	-30.9676	40.589	-102.136	-44.1468	18.9386	-142.168	-22.6354	53.1717	-139.647	-30.9856	33.1095	-137.475	-43.7713	5.07353	-161.712	-38.6767	60.0671	-152.523	-52.7143	40.9914	-143.852	-75.3099	19.6881	-170.704	-54.3604	78.917	-151.884	-81.5093	84.5361	-138.227	-80.4519	110.24	-176.194	-11.2953	104.102	-179.836	2.02589	129.844	-147.706	7.51067	114.721	
2	0.0166667	-105.004	-11.4863	149.097	-91.5649	-44.4679	143.968	-86.5945	-71.8537	123.868	-100.748	-83.853	109.6	-88.8775	-22.0361	74.0983	-80.6193	-35.4491	59.3021	-67.4123	-45.2473	41.6248	-116.717	-30.9441	66.9782	-107.325	-42.5336	45.787	-98.9062	-53.9763	22.5977	-128.166	-44.6933	73.1003	-116.548	-66.1103	52.9513	-106.497	-85.741	38.4149	-141.959	-64.2361	88.5628	-122.587	-85.9783	100.82	-111.7	-77.7999	127.312	-156.053	-17.7565	107.731	-162.876	-3.31717	132.632	-133.266	5.72968	122.771	
3	0.025	-99.234	0.526636	149.846	-81.4689	-29.0587	149.191	-69.0525	-52.1114	135.945	-74.3301	-70.7949	121.983	-82.3968	-14.0887	80.4538	-63.2129	-22.5674	65.5805	-55.3057	-36.3083	52.2598	-101.498	-27.5493	74.9092	-87.5795	-41.5864	53.3063	-76.5527	-54.0952	33.5899	-107.811	-46.3281	79.1867	-92.1916	-64.4854	65.5991	-76.9795	-76.8836	55.624	-117.775	-61.6631	99.3175	-92.6197	-76.6061	110.827	-85.5545	-66.6342	140.109	-144.181	-24.3453	109.167	-162.171	-13.0069	131.996	-131.602	6.94993	121.171	
4	0.0333333	-119.039	16.6893	145.352	-84.3617	-1.22867	142.906	-63.5966	-17.0583	133.55	-61.3978	-41.1799	118.663	-97.0131	6.74046	76.0169	-78.3114	0.178631	62.0723	-59.7874	-6.93655	47.2689	-102.523	-16.1034	66.8271	-84.0725	-25.1574	50.5529	-71.2975	-33.7853	34.6805	-105.597	-40.7494	80.2011	-81.3508	-47.5888	65.5438	-59.7826	-58.2605	56.4872	-105.415	-56.8446	100.153	-79.121	-53.748	108.609	-71.3138	-39.7828	137.202	-148.117	-26.9766	107.77	-164.823	-15.6707	129.343	-146.8	7.23827	116.861	
5	0.0416667	-139.063	27.1225	131.142	-104.425	24.8119	129.195	-79.3738	14.1676	115.261	-67.4324	-6.08095	104.84	-124.199	17.2358	64.9274	-100.344	12.4124	46.4912	-82.5924	13.3033	33.6671	-118.844	-11.4251	60.3113	-101.917	-11.9716	42.5089	-82.9115	-19.5054	24.8219	-112.086	-30.745	73.636	-87.3557	-32.5231	58.1611	-65.9734	-33.7916	49.1464	-106.886	-40.0947	91.7081	-81.4236	-31.2255	94.0467	-71.3849	-13.2412	119.494	-156.235	-25.7329	107.704	-171.939	-24.5221	130.313	-166.376	7.03256	111.708	
6	0.05	-157.948	28.3155	124.746	-122.685	34.1557	117.393	-101.103	29.3342	105.621	-85.7385	12.1587	91.4917	-143.941	9.88971	54.7897	-129.503	16.0121	38.9726	-107.261	15.7668	23.6209	-137.378	-14.8487	53.9843	-124.286	-12.123	35.3032	-102.494	-14.0286	12.2069	-127.954	-25.4697	67.9049	-103.884	-25.6603	50.0889	-78.1923	-16.6102	35.5538	-114.21	-37.6685	84.8712	-88.7559	-19.8046	81.7132	-79.0731	1.23694	99.0418	-162.119	-29.6815	108.371	-176.154	-33.4743	133.519	-181.587	-5.67841	111.83	
7	0.0583333	-177.72	19.1844	124.923	-144.4	30.1747	111.042	-120.561	29.3477	89.2539	-104.218	13.1063	77.1307	-167.926	-3.32017	51.7431	-150.926	4.49824	29.7237	-131.359	5.38364	16.791	-158.701	-26.3044	51.1363	-145.833	-25.6999	29.5996	-125.001	-19.6472	2.83848	-144.177	-35.5108	63.2267	-119.572	-34.0169	44.0139	-98.1567	-19.1882	32.9207	-126.908	-43.913	77.5344	-107.784	-28.0961	68.3423	-94.3175	1.23552	79.4596	-168.867	-44.7715	110.467	-180.982	-43.7111	134.443	-196.053	-17.4634	111.72	
8	0.0666667	-189.399	6.84758	121.246	-159.392	18.2315	104.263	-140.05	16.1717	85.6789	-122.556	-2.86156	72.0689	-185.043	-19.0056	53.5237	-167.619	-12.5641	27.4745	-148.468	-2.89359	10.7123	-175.499	-41.1904	54.7102	-159.099	-43.7264	26.3955	-142.233	-36.7327	3.82313	-156.332	-50.2282	61.7801	-135.277	-44.9811	41.2383	-115.754	-21.152	30.6855	-140.581	-56.2136	80.7431	-122.884	-41.3441	62.9765	-108.003	-11.5473	67.0242	-178.252	-53.9663	110.135	-187.777	-54.5271	140.047	-204.155	-31.2538	115.718	
9	0.075	-203.432	-3.46924	121.041	-176.042	15.125	99.1408	-156.955	13.4865	79.8796	-140.645	-9.57783	73.2406	-199.343	-29.7544	51.0012	-184.56	-27.701	29.4434	-164.275	-18.6427	10.2212	-189.694	-53.2016	51.8814	-177.459	-55.1246	25.8496	-157.367	-49.1656	3.62541	-171.436	-59.0334	58.7361	-149.003	-56.6385	39.7657	-130.552	-30.3504	31.3718	-156.304	-61.9484	79.111	-134.98	-49.1317	58.5668	-124.94	-21.4284	60.1753	-187.373	-64.9678	111.013	-196.789	-63.2277	135.937	-216.45	-40.5126	116.047	
10	0.0833333	-213.633	-10.5639	117.813	-186.985	4.60423	98.3022	-166.336	1.16955	77.4803	-149.268	-22.5005	70.1586	-207.272	-41.9072	51.2214	-196.23	-36.7043	27.7702	-173.159	-29.1875	8.99219	-198.214	-64.9393	51.6492	-186.999	-66.2598	27.8585	-164.877	-62.2393	5.41224	-176.78	-72.1823	63.3058	-159.528	-65.9651	39.4848	-141.403	-37.9479	30.4788	-165.687	-71.091	79.127	-146.455	-59.5739	56.7945	-136.49	-31.3285	58.909	-195.927	-73.0725	112.245	-204.151	-69.8265	135.963	-224.114	-51.4803	116.021	
11	0.0916667	-217.17	-15.5155	121.818	-190.839	1.35075	97.8725	-171.539	-5.42696	76.2417	-159.216	-32.1062	72.9082	-218.149	-45.6305	51.3524	-205.093	-42.893	26.5205	-186.684	-40.1444	10.6493	-210.313	-68.5676	55.5559	-197.924	-74.4796	27.5896	-178.052	-70.0227	1.65229	-190.86	-77.7046	65.8734	-175.424	-73.5107	39.6579	-152.33	-53.4558	30.2631	-178.202	-78.2285	74.6694	-160.94	-69.6194	57.7579	-144.29	-39.6141	61.1151	-208.051	-78.2156	111.609	-214.354	-74.8869	139.86	-233.04	-49.7094	115.285	
12	0.1	-222.101	-11.2473	115.729	-194.116	-3.71354	96.6437	-175.103	-10.039	73.6117	-167.214	-38.8323	67.4272	-230.947	-40.4887	49.1546	-220.741	-39.9872	25.2441	-204.224	-42.6885	7.95221	-228.578	-63.6895	52.5768	-218.581	-72.8579	25.472	-203.844	-75.9694	2.5888	-210.054	-79.6833	64.208	-195.728	-76.6717	35.2671	-170.85	-63.714	23.7673	-194.659	-82.6033	78.1316	-176.829	-75.6596	56.702	-158.478	-45.6537	59.8944	-224.728	-69.1748	108.846	-230.183	-65.4225	141.015	-242.74	-42.0444	117.695	
13	0.108333	-225.129	-1.3341	116.988	-197.052	2.20132	89.9421	-182.785	-10.8254	67.0756	-179.324	-40.9156	63.3177	-243.338	-32.9262	51.8174	-237.206	-33.3168	26.1157	-221.411	-36.8963	0.734805	-246.239	-56.1358	50.1375	-241.959	-62.5404	23.5806	-232.643	-68.1885	-0.885138	-230.792	-71.1842	58.6787	-220.148	-75.7752	34.899	-198.416	-69.0313	14.1753	-214.712	-76.1097	69.2518	-191.223	-69.8199	51.3531	-174.538	-46.0063	57.8372	-238.352	-61.7405	107.095	-243.192	-57.593	136.772	-254.008	-31.5324	118.643	
14	0.116667	-226.964	8.91098	113.857	-200.112	9.28058	89.1413	-187.925	-4.14314	64.0237	-190.067	-33.9756	58.8815	-252.032	-18.9962	47.0709	-246.529	-19.4762	22.9547	-235.415	-22.2174	-1.79899	-256.986	-39.2696	50.931	-257.614	-45.9691	23.1829	-251.948	-55.9142	-8.05334	-243.914	-58.3825	56.1629	-236.715	-65.0079	29.1454	-221.157	-62.5124	7.25881	-226.217	-70.0563	64.7102	-206.254	-64.6608	46.6196	-181.905	-39.5925	57.9051	-247.779	-54.2155	108.003	-247.705	-45.6415	133.56	-257.44	-20.5412	115.017	
15	0.125	-219.337	17.5262	113.244	-194.953	12.7014	86.1156	-186.895	-1.41005	58.4516	-190.534	-26.6976	53.7688	-250.185	2.59972	47.1863	-245.331	4.43927	20.8924	-235.828	-4.08444	-6.33639	-258.095	-22.5912	49.7551	-261.273	-23.8274	17.9807	-260.305	-30.7908	-7.24515	-248.552	-42.3602	54.366	-244.701	-46.1095	27.1351	-231.625	-49.6799	1.38281	-232.592	-56.6295	61.0753	-211.51	-49.7786	42.8997	-187.554	-31.2508	56.7917	-250.577	-37.2296	101.284	-250.16	-33.1322	131.395	-256.845	-3.39282	111.045	
16	0.133333	-203.76	26.5247	115.696	-180.807	16.4843	83.77	-177.253	2.68728	61.264	-191.192	-23.0405	50.9358	-235.533	22.449	49.0789	-228.619	21.3985	19.1293	-222.478	17.7658	-3.80651	-248.155	-0.534951	48.6995	-252.124	-1.47761	18.4364	-251.994	-4.01196	-8.82856	-244.282	-17.7971	49.484	-243.22	-25.8288	21.7742	-232.269	-28.7765	-6.26617	-232.494	-37.4453	56.5471	-211.091	-37.2561	40.0894	-185.989	-26.8248	56.2327	-247.431	-19.0151	102.822	-247.9	-15.4716	127.112	-245.2	13.1513	110.065	
17	0.141667	-179.993	24.378	115.881	-161.269	6.57079	91.0485	-160.623	-6.61776	64.504	-180.212	-25.0051	49.7132	-206.731	35.9689	50.7848	-200.105	30.8612	21.1165	-194.096	26.5358	-0.826124	-228.801	18.6396	43.9917	-228.679	20.0771	18.9879	-229.678	15.7823	-13.4941	-232.861	-3.33804	48.2267	-232.16	-7.15945	23.2235	-219.841	-7.97719	-4.82435	-227.091	-22.0603	58.1601	-203.904	-30.85	38.8283	-180.485	-30.1872	54.9813	-236.266	-1.2923	98.8057	-237.481	-3.40664	125.734	-224.285	24.1016	112.502	
18	0.15	-157.284	15.8391	117.499	-144.934	-7.57235	95.4553	-146.26	-22.5965	64.6881	-170.219	-31.5776	56.1786	-176.437	33.3982	53.23	-168.038	30.3562	25.5401	-163.532	20.0509	1.52808	-201.192	25.8442	48.0208	-202.012	24.7094	15.9347	-200.223	22.3022	-7.61263	-211.91	5.03582	50.4165	-211.345	-0.628607	20.9665	-200.092	-5.98226	-6.53596	-213.896	-15.8643	58.1504	-191.841	-27.6871	40.1723	-169.65	-33.8991	56.9186	-216.923	8.16669	100.779	-222.077	7.16665	128.789	-198.732	26.805	114.614	
19	0.158333	-139.227	-4.99	124.895	-126.169	-31.5104	101.81	-132.911	-44.6088	76.0474	-157.786	-50.1104	61.3943	-147.775	14.7631	52.5612	-138.882	9.0162	32.3185	-133.225	-4.33952	7.48646	-172.471	14.0276	47.2547	-166.821	12.9383	21.4867	-167.064	6.06869	-5.49065	-189.634	-3.16265	49.0251	-185.633	-8.27501	26.5963	-175.687	-19.6418	-1.32661	-198.842	-21.0866	62.3383	-182.476	-40.2347	44.0667	-162.489	-53.7723	66.116	-196.673	5.82487	99.9148	-199.189	4.58721	132.355	-168.57	20.995	118.611	
20	0.166667	-125.59	-20.5995	137.811	-114.671	-52.6528	116.091	-121.098	-68.9789	91.4632	-147.889	-71.2741	77.8513	-123.225	-11.938	65.1721	-113.989	-25.4255	38.6534	-108.032	-41.456	17.8866	-148.365	-13.4128	55.1814	-139.426	-18.8992	29.1688	-137.773	-30.5693	1.06419	-165.782	-24.0192	57.9967	-161.341	-35.9836	29.391	-150.58	-50.8092	11.7779	-179.098	-36.5074	69.185	-166.598	-59.8239	55.6957	-149.132	-73.8662	77.8661	-175.568	-7.5068	104.343	-180.403	-0.503184	130.402	-150.231	6.21646	117.706	
21	0.175	-111.504	-25.5372	143.413	-101.542	-57.4534	135.524	-103.315	-79.6277	111.572	-125.869	-85.2048	99.0142	-105.716	-29.5753	71.9643	-93.6745	-42.3042	52.5267	-87.588	-59.1682	34.313	-126.371	-31.9047	59.7712	-122.369	-45.0656	36.2179	-116.697	-57.542	14.4157	-147.057	-43.4872	67.0923	-138.75	-59.4045	41.7199	-129.54	-78.2753	26.1849	-158.845	-53.8303	76.1983	-143.66	-77.3209	67.8224	-131.631	-91.4682	89.5705	-161.704	-20.2275	107.078	-171.295	-8.77064	134.99	-137.998	-3.16451	122.916	
